<mxfile host="app.diagrams.net" modified="2022-04-08T16:41:04.538Z" agent="5.0 (Windows NT 10.0; Win64; x64) AppleWebKit/537.36 (KHTML, like Gecko) Chrome/100.0.4896.79 Safari/537.36" etag="ZaIaVY-M6wTkly9uJ_KD" version="17.3.0" type="github">
  <diagram id="9UgJK5LXWcgMxDRTzDRt" name="Page-1">
    <mxGraphModel dx="942" dy="578" grid="1" gridSize="10" guides="1" tooltips="1" connect="1" arrows="1" fold="1" page="1" pageScale="1" pageWidth="850" pageHeight="1100" math="0" shadow="0">
      <root>
        <mxCell id="0" />
        <mxCell id="1" parent="0" />
        <mxCell id="7wTAhi1Vu_MXwuuSnExM-3" value="Tailwind/Bootstrap" style="rounded=0;whiteSpace=wrap;html=1;" vertex="1" parent="1">
          <mxGeometry x="530" y="90" width="120" height="30" as="geometry" />
        </mxCell>
        <mxCell id="7wTAhi1Vu_MXwuuSnExM-4" value="CSS" style="rounded=0;whiteSpace=wrap;html=1;" vertex="1" parent="1">
          <mxGeometry x="530" y="130" width="120" height="30" as="geometry" />
        </mxCell>
        <mxCell id="7wTAhi1Vu_MXwuuSnExM-6" value="Javascript/TypeScript" style="rounded=0;whiteSpace=wrap;html=1;" vertex="1" parent="1">
          <mxGeometry x="530" y="180" width="120" height="210" as="geometry" />
        </mxCell>
        <mxCell id="7wTAhi1Vu_MXwuuSnExM-8" value="NextJS" style="rounded=0;whiteSpace=wrap;html=1;" vertex="1" parent="1">
          <mxGeometry x="200" y="120" width="320" height="195" as="geometry" />
        </mxCell>
        <mxCell id="7wTAhi1Vu_MXwuuSnExM-9" value="Prisma ORM" style="rounded=0;whiteSpace=wrap;html=1;" vertex="1" parent="1">
          <mxGeometry x="300" y="370" width="120" height="60" as="geometry" />
        </mxCell>
        <mxCell id="7wTAhi1Vu_MXwuuSnExM-10" value="Planetscale" style="rounded=0;whiteSpace=wrap;html=1;" vertex="1" parent="1">
          <mxGeometry x="170" y="470" width="120" height="60" as="geometry" />
        </mxCell>
        <mxCell id="7wTAhi1Vu_MXwuuSnExM-11" value="MongoDB" style="rounded=0;whiteSpace=wrap;html=1;" vertex="1" parent="1">
          <mxGeometry x="310" y="470" width="120" height="60" as="geometry" />
        </mxCell>
        <mxCell id="7wTAhi1Vu_MXwuuSnExM-12" value="Postgres" style="rounded=0;whiteSpace=wrap;html=1;" vertex="1" parent="1">
          <mxGeometry x="450" y="470" width="120" height="60" as="geometry" />
        </mxCell>
        <mxCell id="7wTAhi1Vu_MXwuuSnExM-13" value="Web3/blockchain" style="rounded=0;whiteSpace=wrap;html=1;" vertex="1" parent="1">
          <mxGeometry x="700" y="470" width="120" height="60" as="geometry" />
        </mxCell>
        <mxCell id="7wTAhi1Vu_MXwuuSnExM-14" value="" style="endArrow=none;dashed=1;html=1;rounded=0;entryX=0;entryY=0.75;entryDx=0;entryDy=0;exitX=0.5;exitY=0;exitDx=0;exitDy=0;" edge="1" parent="1" source="7wTAhi1Vu_MXwuuSnExM-10" target="7wTAhi1Vu_MXwuuSnExM-9">
          <mxGeometry width="50" height="50" relative="1" as="geometry">
            <mxPoint x="190" y="450" as="sourcePoint" />
            <mxPoint x="240" y="400" as="targetPoint" />
          </mxGeometry>
        </mxCell>
        <mxCell id="7wTAhi1Vu_MXwuuSnExM-15" value="" style="endArrow=none;dashed=1;html=1;rounded=0;" edge="1" parent="1" source="7wTAhi1Vu_MXwuuSnExM-9">
          <mxGeometry width="50" height="50" relative="1" as="geometry">
            <mxPoint x="370" y="480" as="sourcePoint" />
            <mxPoint x="370" y="470" as="targetPoint" />
          </mxGeometry>
        </mxCell>
        <mxCell id="7wTAhi1Vu_MXwuuSnExM-16" value="" style="endArrow=none;dashed=1;html=1;rounded=0;entryX=1;entryY=0.5;entryDx=0;entryDy=0;exitX=0.5;exitY=0;exitDx=0;exitDy=0;" edge="1" parent="1" source="7wTAhi1Vu_MXwuuSnExM-12" target="7wTAhi1Vu_MXwuuSnExM-9">
          <mxGeometry width="50" height="50" relative="1" as="geometry">
            <mxPoint x="430" y="450" as="sourcePoint" />
            <mxPoint x="480" y="400" as="targetPoint" />
          </mxGeometry>
        </mxCell>
        <mxCell id="7wTAhi1Vu_MXwuuSnExM-17" value="React" style="rounded=0;whiteSpace=wrap;html=1;" vertex="1" parent="1">
          <mxGeometry x="220" y="130" width="280" height="60" as="geometry" />
        </mxCell>
        <mxCell id="7wTAhi1Vu_MXwuuSnExM-18" value="NodeJS" style="rounded=0;whiteSpace=wrap;html=1;" vertex="1" parent="1">
          <mxGeometry x="220" y="240" width="280" height="60" as="geometry" />
        </mxCell>
        <mxCell id="7wTAhi1Vu_MXwuuSnExM-22" value="SQL / NoQL" style="rounded=0;whiteSpace=wrap;html=1;" vertex="1" parent="1">
          <mxGeometry x="530" y="410" width="120" height="40" as="geometry" />
        </mxCell>
        <mxCell id="7wTAhi1Vu_MXwuuSnExM-23" value="" style="endArrow=none;dashed=1;html=1;rounded=0;exitX=0.5;exitY=0;exitDx=0;exitDy=0;entryX=0.5;entryY=1;entryDx=0;entryDy=0;" edge="1" parent="1" source="7wTAhi1Vu_MXwuuSnExM-9" target="7wTAhi1Vu_MXwuuSnExM-8">
          <mxGeometry width="50" height="50" relative="1" as="geometry">
            <mxPoint x="330" y="370" as="sourcePoint" />
            <mxPoint x="380" y="320" as="targetPoint" />
          </mxGeometry>
        </mxCell>
      </root>
    </mxGraphModel>
  </diagram>
</mxfile>
